# xmcd CD database file generated by OrangeCD 5.2
#
# Track frame offsets:
#	150
#	15511
#	29248
#	48361
#	69323
#	80890
#	89802
#	109795
#	121514
#	135719
#	147671
#	159932
#	182196
#	196525
#	206590
#	225232
#	236835
#	249849
#	266807
#	281608
#
# Disc length: 3944 seconds
#
# Revision: 0
# Processed by: cddbd v1.5.1PL0 Copyright (c) Steve Scherf et al.
# Submitted via: OrangeCD 5.2
#
DISCID=1b0f6614
DTITLE=Johnny Cash - More American Recordings cd 2
DYEAR=1900
DGENRE=Country
TTITLE0=Folsom Prison Blues
TTITLE1=Get Rhythm
TTITLE2=Sunday Morning Comin' Down
TTITLE3=Ghost Riders In The Sky
TTITLE4=A Cowboys Prayer
TTITLE5=Oh, Bury Me Not
TTITLE6=Big River
TTITLE7=I Walk The Line
TTITLE8=I Still Miss Someone
TTITLE9=Man In Black
TTITLE10=The Alamo
TTITLE11=Orange Blossom Special
TTITLE12=Death And Hell
TTITLE13=Delia's Gone
TTITLE14=Bird On A Wire
TTITLE15=The Beast In Me
TTITLE16=Tennessee Stud
TTITLE17=Down There By The Train
TTITLE18=Drive On
TTITLE19=Ring Of Fire
EXTD=
EXTT0=
EXTT1=
EXTT2=
EXTT3=
EXTT4=
EXTT5=
EXTT6=
EXTT7=
EXTT8=
EXTT9=
EXTT10=
EXTT11=
EXTT12=
EXTT13=
EXTT14=
EXTT15=
EXTT16=
EXTT17=
EXTT18=
EXTT19=
PLAYORDER=
